<svg width="390" height="433" viewBox="0 0 390 433" fill="none" xmlns="http://www.w3.org/2000/svg">
<path d="M-115.71 10.9228C-115.557 10.7282 -115.389 10.5385 -115.208 10.3538C-111.636 6.70854 -102.941 4.98272 -99.8123 4.37059C-82.5457 0.992333 -63.8622 2.18902 -46.8204 5.99065C-26.6915 10.481 -8.67723 16.9956 8.52313 28.4625C22.2913 37.6413 36.7168 46.3392 51.1152 54.4881C75.5257 68.3035 102.56 74.2999 129.506 81.0363C154.322 87.2405 179.022 94.3067 204.76 95.0421C226.667 95.668 247.477 93.5162 268.831 88.7708C291.232 83.793 314.277 78.2725 337.397 81.6634C348.935 83.3557 360.742 87.0658 371.888 90.4954C383.805 94.162 394.531 102.316 404.499 109.57C417.356 118.928 426.907 130.394 435.489 143.696C446.981 161.509 458.641 179.279 470.66 196.74C486.513 219.772 505.461 242.596 517.747 267.814C525.328 283.375 524.569 301.753 521.039 318.193C518.507 329.989 515.774 343.413 510.482 354.357C507.354 360.828 501.93 366.199 497.992 372.178C494.221 377.905 490.456 384.743 484.875 388.849C478.122 393.817 471.311 398.301 464.232 402.75C458.286 406.488 452.299 410.066 446.202 413.568C438.382 418.061 430.209 420.58 422.163 424.386C412.19 429.103 400.071 431.775 388.925 430.762C370.885 429.122 353.599 424.64 336.247 419.683C328.315 417.416 320.296 415.777 312.213 414.125L311.789 414.038C293.201 410.239 275.259 404.288 256.811 399.928C223.123 391.966 190.197 381.552 156.158 375.052C143.579 372.65 132.454 369.826 119.576 369.826C106.052 369.826 93.3361 370.923 80.1196 374.007C57.4167 379.304 33.832 389.467 10.2477 383.937C-7.84161 379.695 -26.1324 374.204 -39.8176 360.733C-70.9582 330.079 -75.9146 284.199 -85.493 243.775C-89.2015 228.123 -89.6055 212.219 -91.5552 196.322C-93.0507 184.128 -94.1682 172.394 -94.1682 160.106C-94.1682 148.528 -96.7663 137.709 -99.8646 126.607C-103.886 112.198 -107.683 97.6955 -111.1 83.1267C-112.959 75.2035 -115.804 67.5627 -115.804 59.4006L-115.804 59.2056C-115.804 53.8246 -115.803 44.8743 -117.476 39.8553C-120.657 30.3115 -122.065 18.4636 -115.71 10.9228Z" fill="#171C47"/>
<path d="M-116.745 13.3071C-116.11 7.59699 -103.689 5.129 -99.8123 4.37059C-82.5457 0.992333 -63.8622 2.18902 -46.8204 5.99065C-26.6915 10.481 -8.67723 16.9956 8.52313 28.4625C22.2913 37.6413 36.7168 46.3392 51.1152 54.4881C75.5257 68.3035 102.56 74.2999 129.506 81.0363C154.322 87.2405 179.022 94.3067 204.76 95.0421C226.667 95.668 247.477 93.5162 268.831 88.7708C291.231 83.793 314.277 78.2725 337.397 81.6634C348.935 83.3557 360.742 87.0658 371.888 90.4954C383.805 94.162 394.531 102.316 404.499 109.57C417.356 118.928 426.907 130.394 435.489 143.696C446.981 161.509 458.641 179.279 470.66 196.74C486.513 219.772 505.461 242.596 517.747 267.814C525.328 283.375 524.569 301.753 521.039 318.193C518.507 329.989 515.774 343.413 510.482 354.357C507.354 360.828 501.93 366.199 497.992 372.178C494.221 377.905 490.456 384.743 484.875 388.849C478.122 393.817 471.311 398.301 464.232 402.75C458.286 406.488 452.299 410.066 446.202 413.568C438.382 418.061 430.209 420.58 422.163 424.386C412.19 429.103 400.071 431.775 388.925 430.762C370.885 429.122 353.599 424.64 336.247 419.683C328.176 417.376 320.015 415.72 311.789 414.038C293.201 410.239 275.259 404.288 256.811 399.928C223.123 391.966 190.197 381.552 156.158 375.052C143.579 372.65 132.454 369.826 119.576 369.826C106.052 369.826 93.3361 370.923 80.1196 374.007C57.4167 379.304 33.832 389.467 10.2477 383.937C-7.84162 379.695 -26.1324 374.204 -39.8176 360.733C-70.9582 330.079 -75.9146 284.199 -85.493 243.775C-89.2015 228.123 -89.6055 212.219 -91.5552 196.322C-93.0507 184.128 -94.1682 172.394 -94.1682 160.106C-94.1682 148.528 -96.7663 137.709 -99.8646 126.607C-103.886 112.198 -107.683 97.6955 -111.1 83.1267C-112.959 75.2035 -115.804 67.5627 -115.804 59.4006C-115.804 54.0432 -115.783 44.9354 -117.476 39.8553C-121.166 28.7855 -122.47 14.6158 -112.041 7.66298" stroke="black" stroke-width="3" stroke-linecap="round"/>
</svg>
