<svg width="390" height="844" viewBox="0 0 390 844" fill="none" xmlns="http://www.w3.org/2000/svg">
<path d="M-115.538 -164.174C-115.384 -164.695 -115.217 -165.202 -115.036 -165.696C-111.463 -175.443 -102.765 -180.058 -99.6348 -181.694C-82.3625 -190.727 -63.6728 -187.528 -46.6253 -177.362C-26.4896 -165.356 -8.46938 -147.936 8.73672 -117.275C22.5094 -92.7321 36.9398 -69.4748 51.343 -47.6855C75.7617 -10.7448 102.805 5.28905 129.759 23.3015C154.584 39.8908 179.293 58.7851 205.039 60.7514C226.954 62.425 247.771 56.6713 269.132 43.9828C291.539 30.6726 314.592 15.9115 337.72 24.9784C349.262 29.5033 361.073 39.4237 372.223 48.5942C384.144 58.3983 394.874 80.2003 404.844 99.5986C417.706 124.62 427.26 155.279 435.845 190.848C447.341 238.476 459.005 285.992 471.028 332.682C486.886 394.265 505.84 455.294 518.13 522.726C525.714 564.334 524.954 613.474 521.424 657.433C518.89 688.974 516.157 724.87 510.864 754.132C507.734 771.434 502.308 785.795 498.369 801.783C494.596 817.097 490.831 835.381 485.248 846.359C478.492 859.644 471.679 871.632 464.598 883.53C458.649 893.524 452.661 903.09 446.562 912.456C438.739 924.468 430.564 931.205 422.514 941.381C412.539 953.993 400.415 961.139 389.266 958.429C371.22 954.044 353.927 942.061 336.57 928.805C328.635 922.745 320.614 918.363 312.53 913.946L312.104 913.713C293.51 903.553 275.561 887.643 257.108 875.984C223.409 854.693 190.471 826.848 156.421 809.469C143.838 803.046 132.709 795.495 119.827 795.495C106.298 795.495 93.578 798.428 80.3571 806.674C57.6466 820.838 34.054 848.011 10.4619 833.224C-7.63348 821.882 -25.9304 807.201 -39.6201 771.18C-70.7711 689.215 -75.7292 566.536 -85.3108 458.446C-89.0205 416.597 -89.4247 374.071 -91.375 331.564C-92.871 298.957 -93.9889 267.581 -93.9889 234.725C-93.9889 203.768 -96.5879 174.839 -99.6871 145.153C-103.71 106.624 -107.508 67.8463 -110.927 28.8911C-112.786 7.70529 -115.632 -12.7254 -115.632 -34.5501L-115.632 -35.0714C-115.632 -49.4596 -115.631 -73.3918 -117.305 -86.8121C-120.487 -112.331 -121.895 -144.011 -115.538 -164.174Z" fill="#171C47"/>
<path d="M-116.573 -157.799C-115.938 -173.067 -103.512 -179.666 -99.6348 -181.694C-82.3625 -190.727 -63.6728 -187.528 -46.6253 -177.362C-26.4896 -165.356 -8.46938 -147.936 8.73673 -117.275C22.5095 -92.7321 36.9398 -69.4748 51.343 -47.6855C75.7617 -10.7448 102.805 5.28905 129.759 23.3015C154.584 39.8908 179.293 58.7851 205.039 60.7514C226.954 62.425 247.771 56.6713 269.132 43.9828C291.539 30.6726 314.593 15.9115 337.72 24.9784C349.262 29.5033 361.073 39.4237 372.223 48.5942C384.144 58.3983 394.874 80.2003 404.844 99.5986C417.706 124.62 427.26 155.279 435.845 190.848C447.341 238.476 459.005 285.992 471.028 332.682C486.886 394.265 505.84 455.294 518.13 522.726C525.714 564.334 524.954 613.474 521.424 657.433C518.89 688.974 516.157 724.87 510.864 754.132C507.734 771.434 502.308 785.795 498.369 801.783C494.596 817.097 490.831 835.381 485.248 846.359C478.492 859.644 471.679 871.632 464.598 883.53C458.649 893.524 452.661 903.09 446.562 912.456C438.739 924.468 430.564 931.205 422.514 941.381C412.538 953.993 400.415 961.139 389.266 958.429C371.22 954.044 353.927 942.061 336.57 928.805C328.496 922.639 320.333 918.21 312.104 913.713C293.51 903.553 275.561 887.643 257.108 875.984C223.409 854.693 190.471 826.848 156.421 809.469C143.838 803.046 132.709 795.495 119.827 795.495C106.298 795.495 93.578 798.428 80.3571 806.674C57.6466 820.838 34.054 848.011 10.4619 833.224C-7.63348 821.882 -25.9304 807.201 -39.6201 771.18C-70.7711 689.215 -75.7292 566.536 -85.3108 458.446C-89.0205 416.597 -89.4247 374.071 -91.375 331.564C-92.871 298.957 -93.9889 267.581 -93.9889 234.725C-93.9889 203.768 -96.5879 174.839 -99.6871 145.153C-103.71 106.624 -107.508 67.8463 -110.927 28.8911C-112.786 7.70529 -115.632 -12.7255 -115.632 -34.5501C-115.632 -48.8752 -115.611 -73.2284 -117.305 -86.8122C-120.996 -116.411 -122.301 -154.3 -111.868 -172.891" stroke="black" stroke-width="3" stroke-linecap="round"/>
</svg>
